<svg xmlns="http://www.w3.org/2000/svg" viewBox="0 0 220 220" role="img" aria-label="Organization placeholder">
  <defs>
    <linearGradient id="bg" x1="0%" y1="0%" x2="100%" y2="100%">
      <stop offset="0%" stop-color="#f7fbff"/>
      <stop offset="100%" stop-color="#e8eef7"/>
    </linearGradient>
    <linearGradient id="sky" x1="0%" y1="0%" x2="0%" y2="100%">
      <stop offset="0%" stop-color="#d8e7fb"/>
      <stop offset="100%" stop-color="#ffffff"/>
    </linearGradient>
  </defs>
  <rect width="220" height="220" rx="34" fill="url(#bg)"/>
  <rect x="18" y="18" width="184" height="184" rx="26" fill="url(#sky)"/>
  <circle cx="110" cy="70" r="18" fill="#f0c979" opacity="0.95"/>
  <path d="M46 162h128v10H46z" fill="#b8c6d8"/>
  <path d="M58 92l52-30 52 30v62H58z" fill="#ffffff" stroke="#cad6e5" stroke-width="4"/>
  <path d="M84 162v-38c0-15 12-27 26-27s26 12 26 27v38z" fill="#edf3fa"/>
  <rect x="69" y="108" width="20" height="20" rx="4" fill="#d9e5f3"/>
  <rect x="131" y="108" width="20" height="20" rx="4" fill="#d9e5f3"/>
  <path d="M98 56h24v18H98z" fill="#f7fafc" stroke="#cad6e5" stroke-width="3"/>
</svg>
